<svg xmlns="http://www.w3.org/2000/svg" viewBox="0 0 240 180" role="img" aria-labelledby="title"><title id="title">柿蒂纹四瓣花原创重构</title><rect width="240" height="180" fill="#f7f3ea"/><g transform="translate(120 90)" stroke="#182123" stroke-width="6" stroke-linejoin="round"><path d="M0-12C-26-56-8-78 0-80c8 2 26 24 0 80Z" fill="#b6342a" opacity=".26"/><path d="M12 0c44-26 66-8 68 0-2 8-24 26-80 0Z" fill="#1e6f67" opacity=".24"/><path d="M0 12c26 44 8 66 0 68-8-2-26-24 0-80Z" fill="#b6342a" opacity=".26"/><path d="M-12 0c-44 26-66 8-68 0 2-8 24-26 80 0Z" fill="#1e6f67" opacity=".24"/><circle r="13" fill="#7a642e"/><circle r="72" fill="none"/></g></svg>
